<svg width="24" height="24" viewBox="0 0 24 24" fill="none" xmlns="http://www.w3.org/2000/svg">
<path fill-rule="evenodd" clip-rule="evenodd" d="M7.29327 9.70703C7.1058 9.5195 7.00049 9.26519 7.00049 9.00003C7.00049 8.73487 7.1058 8.48056 7.29327 8.29303L11.2933 4.29303C11.4808 4.10556 11.7351 4.00024 12.0003 4.00024C12.2654 4.00024 12.5197 4.10556 12.7073 4.29303L16.7073 8.29303C16.8894 8.48163 16.9902 8.73423 16.9879 8.99643C16.9857 9.25863 16.8805 9.50944 16.6951 9.69485C16.5097 9.88026 16.2589 9.98543 15.9967 9.9877C15.7345 9.98998 15.4819 9.88919 15.2933 9.70703L13.0003 7.41403V19C13.0003 19.2652 12.8949 19.5196 12.7074 19.7071C12.5198 19.8947 12.2655 20 12.0003 20C11.7351 20 11.4807 19.8947 11.2932 19.7071C11.1056 19.5196 11.0003 19.2652 11.0003 19V7.41403L8.70727 9.70703C8.51975 9.8945 8.26544 9.99982 8.00027 9.99982C7.73511 9.99982 7.4808 9.8945 7.29327 9.70703Z" fill="#F76659"/>
</svg>
