<svg width="9" height="15" viewBox="0 0 9 15" fill="none" xmlns="http://www.w3.org/2000/svg">
<path fill-rule="evenodd" clip-rule="evenodd" d="M8.54388 6.32063C8.83597 6.61308 9.00004 7.00951 9.00004 7.42284C9.00004 7.83618 8.83597 8.23261 8.54388 8.52506L2.66261 14.4084C2.37001 14.7009 1.97321 14.8651 1.55951 14.865C1.1458 14.8649 0.749082 14.7005 0.456617 14.4079C0.164153 14.1153 -9.74595e-05 13.7185 4.33851e-08 13.3048C9.75462e-05 12.8911 0.164535 12.4944 0.457137 12.2019L5.23619 7.42284L0.457137 2.64379C0.172875 2.34975 0.015474 1.95583 0.0188336 1.54687C0.0221932 1.13791 0.186045 0.746625 0.475099 0.457299C0.764153 0.167973 1.15528 0.00375144 1.56424 5.94995e-06C1.9732 -0.00373954 2.36727 0.153291 2.66157 0.437275L8.54492 6.31959L8.54388 6.32063Z" fill="#6E7C87"/>
</svg>
