<svg width="50" height="38" viewBox="0 0 50 38" fill="none" xmlns="http://www.w3.org/2000/svg">
<path d="M15.6127 1.17908C17.1847 -0.392875 19.7333 -0.392871 21.3053 1.17908L35.7389 15.6127C37.3109 17.1847 37.3109 19.7333 35.7389 21.3053L21.3053 35.7389C19.7333 37.3109 17.1847 37.3109 15.6127 35.7389L1.17908 21.3053C-0.392875 19.7333 -0.392871 17.1847 1.17908 15.6127L15.6127 1.17908Z" fill="#0047FD"/>
<path d="M28.6947 2.18539C30.2667 0.613435 32.8153 0.613438 34.3873 2.18539L48.8209 16.619C50.3929 18.191 50.3929 20.7396 48.8209 22.3116L34.3873 36.7452C32.8153 38.3172 30.2667 38.3172 28.6947 36.7452L14.2611 22.3116C12.6891 20.7396 12.6891 18.191 14.2611 16.619L28.6947 2.18539Z" fill="#1AFF9F"/>
</svg>
