<svg width="15" height="9" viewBox="0 0 15 9" fill="none" xmlns="http://www.w3.org/2000/svg">
<path fill-rule="evenodd" clip-rule="evenodd" d="M8.5444 8.54388C8.25195 8.83597 7.85552 9.00004 7.44218 9.00004C7.02885 9.00004 6.63242 8.83597 6.33997 8.54388L0.456617 2.66261C0.164152 2.37001 -9.74595e-05 1.97321 4.33853e-08 1.55951C9.75462e-05 1.1458 0.164534 0.749082 0.457136 0.456617C0.749739 0.164153 1.14654 -9.74595e-05 1.56024 4.33851e-08C1.97395 9.75462e-05 2.37067 0.164535 2.66313 0.457137L7.44218 5.23619L12.2212 0.457137C12.5153 0.172875 12.9092 0.015474 13.3182 0.0188336C13.7271 0.0221932 14.1184 0.186045 14.4077 0.475099C14.6971 0.764153 14.8613 1.15528 14.865 1.56424C14.8688 1.9732 14.7117 2.36727 14.4278 2.66157L8.54544 8.54492L8.5444 8.54388Z" fill="#6E7C87"/>
</svg>
