<svg width="16" height="16" viewBox="0 0 16 16" fill="none" xmlns="http://www.w3.org/2000/svg">
<path d="M8.00007 3.24988C8.41428 3.24988 8.75007 2.9141 8.75007 2.49988C8.75007 2.08567 8.41428 1.74988 8.00007 1.74988C7.58586 1.74988 7.25007 2.08567 7.25007 2.49988C7.25007 2.9141 7.58586 3.24988 8.00007 3.24988Z" stroke="#666666" stroke-width="1.41346" stroke-linecap="round" stroke-linejoin="round"/>
<path d="M8.00007 8.74981C8.41428 8.74981 8.75007 8.41402 8.75007 7.99981C8.75007 7.5856 8.41428 7.24981 8.00007 7.24981C7.58586 7.24981 7.25007 7.5856 7.25007 7.99981C7.25007 8.41402 7.58586 8.74981 8.00007 8.74981Z" stroke="#666666" stroke-width="1.41346" stroke-linecap="round" stroke-linejoin="round"/>
<path d="M8.00007 14.25C8.41428 14.25 8.75007 13.9142 8.75007 13.5C8.75007 13.0858 8.41428 12.75 8.00007 12.75C7.58586 12.75 7.25007 13.0858 7.25007 13.5C7.25007 13.9142 7.58586 14.25 8.00007 14.25Z" stroke="#666666" stroke-width="1.41346" stroke-linecap="round" stroke-linejoin="round"/>
</svg>
