<svg width="29" height="29" viewBox="0 0 29 29" fill="none" xmlns="http://www.w3.org/2000/svg">
<path d="M12.2105 26.7105C12.2105 27.3177 12.4517 27.9001 12.8811 28.3294C13.3105 28.7588 13.8928 29 14.5 29C15.1072 29 15.6895 28.7588 16.1189 28.3294C16.5483 27.9001 16.7895 27.3177 16.7895 26.7105V16.7895H26.7105C27.3177 16.7895 27.9001 16.5483 28.3294 16.1189C28.7588 15.6895 29 15.1072 29 14.5C29 13.8928 28.7588 13.3105 28.3294 12.8811C27.9001 12.4517 27.3177 12.2105 26.7105 12.2105H16.7895V2.28947C16.7895 1.68227 16.5483 1.09993 16.1189 0.670571C15.6895 0.241212 15.1072 0 14.5 0C13.8928 0 13.3105 0.241212 12.8811 0.670571C12.4517 1.09993 12.2105 1.68227 12.2105 2.28947V12.2105H2.28947C1.68227 12.2105 1.09993 12.4517 0.670571 12.8811C0.241212 13.3105 0 13.8928 0 14.5C0 15.1072 0.241212 15.6895 0.670571 16.1189C1.09993 16.5483 1.68227 16.7895 2.28947 16.7895H12.2105V26.7105Z" fill="#AA9FC7"/>
</svg>
