<svg width="14" height="14" viewBox="0 0 14 14" fill="none" xmlns="http://www.w3.org/2000/svg">
<path d="M14.0001 10.9697L11.4976 13.4722L10.8806 12.8551L12.3272 11.4085H7.89819V10.5309H12.3272L10.8806 9.08429L11.4976 8.46724L14.0001 10.9697ZM9.26255 9.61221C9.08429 9.21913 8.85804 8.8649 8.5838 8.54952C8.30956 8.23414 7.99646 7.96218 7.64452 7.73364C7.29257 7.50511 6.91777 7.32914 6.52012 7.20573C6.12247 7.08232 5.70425 7.02061 5.26546 7.02061C4.86324 7.02061 4.47473 7.07318 4.09993 7.1783C3.72513 7.28343 3.37547 7.42969 3.05095 7.61709C2.72643 7.80449 2.43162 8.03303 2.16652 8.3027C1.90142 8.57237 1.67288 8.86947 1.48091 9.19399C1.28894 9.51851 1.14039 9.86817 1.03527 10.243C0.93014 10.6178 0.877577 11.0063 0.877577 11.4085H0C0 10.8737 0.0799875 10.3504 0.239962 9.83846C0.399937 9.32654 0.630758 8.85347 0.932425 8.41925C1.23409 7.98503 1.59289 7.59881 2.00883 7.26058C2.42476 6.92234 2.88869 6.6641 3.40061 6.48584C3.14465 6.32129 2.91611 6.13161 2.715 5.91679C2.51389 5.70196 2.3402 5.46657 2.19394 5.21061C2.04768 4.95465 1.94027 4.68498 1.87171 4.4016C1.80315 4.11821 1.76429 3.82112 1.75515 3.51031C1.75515 3.02581 1.84657 2.57103 2.0294 2.14595C2.21222 1.72087 2.46133 1.34836 2.77671 1.02841C3.09209 0.70846 3.4646 0.457071 3.89425 0.274243C4.32389 0.0914142 4.78097 0 5.26546 0C5.74996 0 6.20474 0.0914142 6.62982 0.274243C7.05489 0.457071 7.42741 0.706175 7.74736 1.02155C8.06731 1.33693 8.3187 1.70945 8.50153 2.13909C8.68435 2.56874 8.77577 3.02581 8.77577 3.51031C8.77577 4.13649 8.63179 4.70326 8.34384 5.21061C8.05588 5.71796 7.65137 6.14304 7.13031 6.48584C7.4594 6.60925 7.77021 6.76237 8.06274 6.9452C8.35526 7.12803 8.62493 7.33828 8.87175 7.57596C9.11857 7.81363 9.34254 8.07416 9.54365 8.35755C9.74476 8.64093 9.91845 8.94031 10.0647 9.25569L9.26255 9.61221ZM2.63273 3.51031C2.63273 3.87596 2.70129 4.21648 2.83841 4.53186C2.97553 4.84724 3.16293 5.12605 3.40061 5.3683C3.63829 5.61055 3.9171 5.80023 4.23705 5.93736C4.557 6.07448 4.8998 6.14304 5.26546 6.14304C5.62655 6.14304 5.96706 6.07448 6.28701 5.93736C6.60696 5.80023 6.88578 5.61283 7.12346 5.37516C7.36113 5.13748 7.55082 4.85867 7.69251 4.53872C7.8342 4.21877 7.90276 3.87596 7.89819 3.51031C7.89819 3.14922 7.82963 2.8087 7.69251 2.48875C7.55539 2.1688 7.36799 1.88999 7.13031 1.65231C6.89263 1.41464 6.61154 1.22495 6.28701 1.08326C5.96249 0.941567 5.62198 0.873006 5.26546 0.877577C4.8998 0.877577 4.55929 0.946137 4.24391 1.08326C3.92853 1.22038 3.64971 1.40778 3.40747 1.64546C3.16522 1.88313 2.97553 2.16423 2.83841 2.48875C2.70129 2.81327 2.63273 3.15379 2.63273 3.51031Z" fill="#A7A7A8"/>
</svg>
