<svg width="17" height="17" viewBox="0 0 17 17" fill="none" xmlns="http://www.w3.org/2000/svg">
<path d="M5.57278 10.1906L9.70487 6.05852C10.2234 5.54002 10.9703 5.44599 11.4894 5.96449C12.0079 6.48299 11.9144 7.23047 11.3953 7.74897L7.07517 12.0691C6.32397 12.8203 4.82106 12.8203 3.88233 11.8811C2.94308 10.9418 2.94308 9.43942 3.69427 8.68823L8.01442 4.36807C8.66401 3.73031 9.53917 3.37486 10.4495 3.37904C11.3598 3.38322 12.2317 3.7467 12.8754 4.39041C13.5191 5.03411 13.8826 5.90596 13.8867 6.81629C13.8909 7.72661 13.5355 8.60176 12.8977 9.25136L10.4561 11.693" stroke="#666666" stroke-width="1.0601" stroke-linecap="round" stroke-linejoin="round"/>
</svg>
