<svg width="9" height="9" viewBox="0 0 9 9" fill="none" xmlns="http://www.w3.org/2000/svg">
<path fill-rule="evenodd" clip-rule="evenodd" d="M1.875 7.5H7.125C7.22446 7.5 7.31984 7.53951 7.39017 7.60983C7.46049 7.68016 7.5 7.77554 7.5 7.875C7.5 7.97446 7.46049 8.06984 7.39017 8.14017C7.31984 8.21049 7.22446 8.25 7.125 8.25H1.875C1.77554 8.25 1.68016 8.21049 1.60984 8.14017C1.53951 8.06984 1.5 7.97446 1.5 7.875C1.5 7.77554 1.53951 7.68016 1.60984 7.60983C1.68016 7.53951 1.77554 7.5 1.875 7.5ZM1.5 5.625L5.25 1.875L6.375 3L2.625 6.75H1.5V5.625ZM5.625 1.5L6.375 0.75L7.5 1.875L6.74963 2.62538L5.625 1.5Z" fill="#666666"/>
</svg>
