<svg width="13" height="13" viewBox="0 0 13 13" fill="none" xmlns="http://www.w3.org/2000/svg">
<path d="M12.4676 3.98126C12.1421 3.20435 11.6686 2.49818 11.0733 1.90213C10.4799 1.30505 9.77497 0.830324 8.99856 0.504924C8.2032 0.169959 7.34863 -0.00174448 6.48562 1.33617e-05H6.4566C5.57881 0.00436604 4.73004 0.178473 3.9306 0.520884C3.16086 0.84962 2.46254 1.32518 1.87468 1.92099C1.28523 2.51571 0.817086 3.2194 0.496334 3.99287C0.163376 4.79719 -0.00533539 5.65998 0.000128595 6.53048C0.00448127 7.5374 0.245329 8.53707 0.695106 9.43081V11.6362C0.695106 12.0047 0.99399 12.3036 1.36107 12.3036H3.56352C4.46144 12.7567 5.4523 12.9951 6.45805 13H6.48852C7.35615 13 8.19622 12.8317 8.98841 12.5024C9.76088 12.1808 10.4632 11.7116 11.0559 11.1211C11.6537 10.5277 12.1238 9.83416 12.4531 9.06084C12.7941 8.25994 12.9682 7.40827 12.9726 6.52903C12.9755 5.64544 12.8043 4.78796 12.4676 3.98126ZM3.58964 7.19644C3.2066 7.19644 2.89466 6.8845 2.89466 6.50001C2.89466 6.11553 3.2066 5.80358 3.58964 5.80358C3.97267 5.80358 4.28461 6.11553 4.28461 6.50001C4.28461 6.8845 3.97412 7.19644 3.58964 7.19644ZM6.48562 7.19644C6.10258 7.19644 5.79064 6.8845 5.79064 6.50001C5.79064 6.11553 6.10258 5.80358 6.48562 5.80358C6.86865 5.80358 7.1806 6.11553 7.1806 6.50001C7.1806 6.8845 6.86865 7.19644 6.48562 7.19644ZM9.3816 7.19644C8.99856 7.19644 8.68662 6.8845 8.68662 6.50001C8.68662 6.11553 8.99856 5.80358 9.3816 5.80358C9.76463 5.80358 10.0766 6.11553 10.0766 6.50001C10.0766 6.8845 9.76463 7.19644 9.3816 7.19644Z" fill="#B7D8FF"/>
</svg>
