<svg width="32" height="32" viewBox="0 0 32 32" fill="none" xmlns="http://www.w3.org/2000/svg">
<path d="M20.9999 14C21.6091 14 22.2038 13.8146 22.705 13.4684C23.2062 13.1222 23.5902 12.6316 23.8058 12.0619C24.0214 11.4922 24.0585 10.8703 23.9121 10.279C23.7657 9.68774 23.4428 9.15501 22.9863 8.7517C22.5297 8.34839 21.9613 8.09362 21.3564 8.02125C20.7516 7.94888 20.139 8.06235 19.6003 8.34658C19.0615 8.6308 18.622 9.0723 18.3402 9.61238C18.0585 10.1524 17.9478 10.7655 18.0229 11.37L13.0829 13.84C12.6592 13.4314 12.1245 13.1564 11.5456 13.0494C10.9667 12.9425 10.3691 13.0082 9.82731 13.2384C9.28549 13.4686 8.82338 13.8532 8.49854 14.3441C8.1737 14.8351 8.00049 15.4108 8.00049 15.9995C8.00049 16.5882 8.1737 17.1639 8.49854 17.6549C8.82338 18.1458 9.28549 18.5304 9.82731 18.7606C10.3691 18.9908 10.9667 19.0565 11.5456 18.9496C12.1245 18.8426 12.6592 18.5676 13.0829 18.159L18.0229 20.629C17.9354 21.3312 18.099 22.0418 18.4847 22.6351C18.8704 23.2284 19.4535 23.6663 20.1308 23.8713C20.8081 24.0763 21.5361 24.0353 22.1861 23.7555C22.8361 23.4757 23.3663 22.9751 23.6829 22.3422C23.9995 21.7093 24.0822 20.9849 23.9164 20.2969C23.7505 19.6089 23.3468 19.0017 22.7766 18.5826C22.2064 18.1635 21.5064 17.9595 20.8003 18.0066C20.0942 18.0537 19.4274 18.3489 18.9179 18.84L13.9779 16.37C14.0082 16.1243 14.0082 15.8757 13.9779 15.63L18.9179 13.16C19.4559 13.68 20.1899 14 20.9999 14Z" fill="#5B6871"/>
</svg>
