<svg width="69" height="12" viewBox="0 0 69 12" fill="none" xmlns="http://www.w3.org/2000/svg">
<path d="M6.5 0L8.50904 3.95023L13 4.58319L9.75 7.65758L10.517 12L6.5 9.94971L2.483 12L3.25 7.65758L0 4.58319L4.49096 3.95023L6.5 0Z" fill="#8865EE"/>
<path d="M20.5 0L22.509 3.95023L27 4.58319L23.75 7.65758L24.517 12L20.5 9.94971L16.483 12L17.25 7.65758L14 4.58319L18.491 3.95023L20.5 0Z" fill="#8865EE"/>
<path d="M34.5 0L36.509 3.95023L41 4.58319L37.75 7.65758L38.517 12L34.5 9.94971L30.483 12L31.25 7.65758L28 4.58319L32.491 3.95023L34.5 0Z" fill="#8865EE"/>
<path d="M48.5 0L50.509 3.95023L55 4.58319L51.75 7.65758L52.517 12L48.5 9.94971L44.483 12L45.25 7.65758L42 4.58319L46.491 3.95023L48.5 0Z" fill="#8865EE"/>
<path d="M62.5 0L64.509 3.95023L69 4.58319L65.75 7.65758L66.517 12L62.5 9.94971L58.483 12L59.25 7.65758L56 4.58319L60.491 3.95023L62.5 0Z" fill="#8865EE"/>
</svg>
