<svg width="14" height="16" viewBox="0 0 14 16" fill="none" xmlns="http://www.w3.org/2000/svg">
<path d="M4.37503 1.75215C4.14296 1.75215 3.9204 1.84434 3.7563 2.00844C3.59221 2.17253 3.50002 2.39509 3.50002 2.62716C3.50002 2.85923 3.59221 3.08179 3.7563 3.24588C3.9204 3.40998 4.14296 3.50217 4.37503 3.50217C4.60709 3.50217 4.82965 3.40998 4.99375 3.24588C5.15784 3.08179 5.25003 2.85923 5.25003 2.62716C5.25003 2.39509 5.15784 2.17253 4.99375 2.00844C4.82965 1.84434 4.60709 1.75215 4.37503 1.75215ZM1.89876 1.75215C2.07954 1.23981 2.41479 0.796154 2.85829 0.482338C3.3018 0.168522 3.83172 0 4.37503 0C4.91833 0 5.44826 0.168522 5.89176 0.482338C6.33527 0.796154 6.67051 1.23981 6.85129 1.75215H13.1251C13.3571 1.75215 13.5797 1.84434 13.7438 2.00844C13.9079 2.17253 14.0001 2.39509 14.0001 2.62716C14.0001 2.85923 13.9079 3.08179 13.7438 3.24588C13.5797 3.40998 13.3571 3.50217 13.1251 3.50217H6.85129C6.67051 4.01451 6.33527 4.45817 5.89176 4.77198C5.44826 5.0858 4.91833 5.25432 4.37503 5.25432C3.83172 5.25432 3.3018 5.0858 2.85829 4.77198C2.41479 4.45817 2.07954 4.01451 1.89876 3.50217H0.875005C0.642939 3.50217 0.420379 3.40998 0.256283 3.24588C0.092188 3.08179 0 2.85923 0 2.62716C0 2.39509 0.092188 2.17253 0.256283 2.00844C0.420379 1.84434 0.642939 1.75215 0.875005 1.75215H1.89876ZM9.62506 7.00219C9.39299 7.00219 9.17043 7.09437 9.00634 7.25847C8.84224 7.42257 8.75005 7.64513 8.75005 7.87719C8.75005 8.10926 8.84224 8.33182 9.00634 8.49591C9.17043 8.66001 9.39299 8.7522 9.62506 8.7522C9.85713 8.7522 10.0797 8.66001 10.2438 8.49591C10.4079 8.33182 10.5001 8.10926 10.5001 7.87719C10.5001 7.64513 10.4079 7.42257 10.2438 7.25847C10.0797 7.09437 9.85713 7.00219 9.62506 7.00219ZM7.14879 7.00219C7.32957 6.48984 7.66482 6.04619 8.10832 5.73237C8.55183 5.41855 9.08176 5.25003 9.62506 5.25003C10.1684 5.25003 10.6983 5.41855 11.1418 5.73237C11.5853 6.04619 11.9205 6.48984 12.1013 7.00219H13.1251C13.3571 7.00219 13.5797 7.09437 13.7438 7.25847C13.9079 7.42257 14.0001 7.64513 14.0001 7.87719C14.0001 8.10926 13.9079 8.33182 13.7438 8.49591C13.5797 8.66001 13.3571 8.7522 13.1251 8.7522H12.1013C11.9205 9.26454 11.5853 9.7082 11.1418 10.022C10.6983 10.3358 10.1684 10.5044 9.62506 10.5044C9.08176 10.5044 8.55183 10.3358 8.10832 10.022C7.66482 9.7082 7.32957 9.26454 7.14879 8.7522H0.875005C0.642939 8.7522 0.420379 8.66001 0.256283 8.49591C0.092188 8.33182 0 8.10926 0 7.87719C0 7.64513 0.092188 7.42257 0.256283 7.25847C0.420379 7.09437 0.642939 7.00219 0.875005 7.00219H7.14879ZM4.37503 12.2522C4.14296 12.2522 3.9204 12.3444 3.7563 12.5085C3.59221 12.6726 3.50002 12.8952 3.50002 13.1272C3.50002 13.3593 3.59221 13.5819 3.7563 13.7459C3.9204 13.91 4.14296 14.0022 4.37503 14.0022C4.60709 14.0022 4.82965 13.91 4.99375 13.7459C5.15784 13.5819 5.25003 13.3593 5.25003 13.1272C5.25003 12.8952 5.15784 12.6726 4.99375 12.5085C4.82965 12.3444 4.60709 12.2522 4.37503 12.2522ZM1.89876 12.2522C2.07954 11.7399 2.41479 11.2962 2.85829 10.9824C3.3018 10.6686 3.83172 10.5001 4.37503 10.5001C4.91833 10.5001 5.44826 10.6686 5.89176 10.9824C6.33527 11.2962 6.67051 11.7399 6.85129 12.2522H13.1251C13.3571 12.2522 13.5797 12.3444 13.7438 12.5085C13.9079 12.6726 14.0001 12.8952 14.0001 13.1272C14.0001 13.3593 13.9079 13.5819 13.7438 13.7459C13.5797 13.91 13.3571 14.0022 13.1251 14.0022H6.85129C6.67051 14.5146 6.33527 14.9582 5.89176 15.272C5.44826 15.5859 4.91833 15.7544 4.37503 15.7544C3.83172 15.7544 3.3018 15.5859 2.85829 15.272C2.41479 14.9582 2.07954 14.5146 1.89876 14.0022H0.875005C0.642939 14.0022 0.420379 13.91 0.256283 13.7459C0.092188 13.5819 0 13.3593 0 13.1272C0 12.8952 0.092188 12.6726 0.256283 12.5085C0.420379 12.3444 0.642939 12.2522 0.875005 12.2522H1.89876Z" fill="#CFCFCF"/>
</svg>
