<svg width="28" height="28" viewBox="0 0 28 28" fill="none" xmlns="http://www.w3.org/2000/svg">
<path d="M19.3706 8.62872C18.968 8.22616 18.422 8 17.8527 8C17.2834 8 16.7374 8.22616 16.3348 8.62872L9.16413 15.7994C8.92042 16.0431 8.74908 16.3496 8.66916 16.6849L8.01221 19.4459C7.99442 19.5207 7.99609 19.5988 8.01706 19.6727C8.03802 19.7467 8.07758 19.8141 8.13197 19.8684C8.18635 19.9227 8.25375 19.9622 8.32773 19.9831C8.40171 20.004 8.47981 20.0055 8.55457 19.9877L11.315 19.3301C11.6505 19.2503 11.9572 19.079 12.2011 18.8352L19.3706 11.6657C19.7731 11.2631 19.9993 10.7171 19.9993 10.1478C19.9993 9.57849 19.7731 9.03249 19.3706 8.62992V8.62872ZM16.9707 9.26467C17.0866 9.14885 17.2241 9.05698 17.3754 8.9943C17.5267 8.93162 17.6889 8.89936 17.8527 8.89936C18.0165 8.89936 18.1787 8.93162 18.33 8.9943C18.4813 9.05698 18.6188 9.14885 18.7346 9.26467C18.8504 9.38049 18.9423 9.51798 19.005 9.66931C19.0677 9.82063 19.0999 9.98282 19.0999 10.1466C19.0999 10.3104 19.0677 10.4726 19.005 10.6239C18.9423 10.7752 18.8504 10.9127 18.7346 11.0285L18.1995 11.5631L16.4356 9.79983L16.9707 9.26527V9.26467ZM15.7996 10.437L17.5635 12.1997L11.5639 18.1992C11.438 18.3252 11.2796 18.4134 11.1062 18.4548L9.05673 18.9431L9.5445 16.8937C9.58589 16.7197 9.67469 16.5613 9.80068 16.4353L15.7996 10.4358V10.437Z" fill="#84859E"/>
</svg>
