<svg width="26" height="26" viewBox="0 0 26 26" fill="none" xmlns="http://www.w3.org/2000/svg">
<path d="M12.2273 7.25313C12.471 6.50482 13.5297 6.50482 13.7727 7.25313L14.642 9.92788C14.6952 10.0908 14.7984 10.2327 14.937 10.3334C15.0757 10.4341 15.2426 10.4884 15.4139 10.4885H18.2268C19.0141 10.4885 19.3407 11.496 18.7045 11.9591L16.4295 13.6118C16.2906 13.7125 16.1872 13.8547 16.1341 14.0179C16.0809 14.1811 16.0808 14.3569 16.1338 14.5201L17.0032 17.1949C17.2469 17.9432 16.3897 18.5664 15.7519 18.1033L13.4769 16.4506C13.3381 16.3499 13.1711 16.2956 12.9996 16.2956C12.8281 16.2956 12.661 16.3499 12.5222 16.4506L10.2472 18.1033C9.61023 18.5664 8.75385 17.9432 8.99679 17.1949L9.86617 14.5201C9.91912 14.3569 9.91903 14.1811 9.8659 14.0179C9.81277 13.8547 9.70933 13.7125 9.57042 13.6118L7.29623 11.9599C6.66004 11.4968 6.98748 10.4893 7.77398 10.4893H10.586C10.7575 10.4894 10.9246 10.4352 11.0634 10.3345C11.2022 10.2338 11.3056 10.0917 11.3587 9.92869L12.2281 7.25394L12.2273 7.25313Z" fill="#E8CF79"/>
</svg>
