<svg width="20" height="20" viewBox="0 0 20 20" fill="none" xmlns="http://www.w3.org/2000/svg">
<path d="M11.028 0.00123034C11.7577 -0.00156975 12.4874 0.00576401 13.2169 0.0232293L13.4109 0.030229C13.6349 0.0382286 13.8559 0.0482281 14.1229 0.0602275C15.1868 0.110225 15.9128 0.278217 16.5498 0.525205C17.2097 0.779193 17.7657 1.12318 18.3217 1.67915C18.83 2.17873 19.2235 2.78304 19.4746 3.45006C19.7216 4.08703 19.8896 4.81399 19.9396 5.87794C19.9516 6.14393 19.9616 6.36592 19.9696 6.58991L19.9756 6.7839C19.9934 7.51306 20.001 8.24242 19.9986 8.97179L19.9996 9.71776V11.0277C20.0021 11.7574 19.9944 12.4871 19.9766 13.2166L19.9706 13.4106C19.9626 13.6346 19.9526 13.8556 19.9406 14.1225C19.8906 15.1865 19.7206 15.9125 19.4746 16.5494C19.2243 17.2172 18.8308 17.822 18.3217 18.3213C17.8217 18.8296 17.217 19.223 16.5498 19.4743C15.9128 19.7213 15.1868 19.8893 14.1229 19.9393C13.8559 19.9513 13.6349 19.9613 13.4109 19.9693L13.2169 19.9753C12.4874 19.993 11.7577 20.0007 11.028 19.9983L10.2821 19.9993H8.97314C8.24344 20.0017 7.51374 19.9941 6.78425 19.9763L6.59026 19.9703C6.35288 19.9617 6.11555 19.9517 5.87829 19.9403C4.81434 19.8903 4.08838 19.7203 3.45041 19.4743C2.78312 19.2236 2.17871 18.8301 1.67949 18.3213C1.17057 17.8216 0.776763 17.2169 0.525551 16.5494C0.278563 15.9125 0.110572 15.1865 0.060574 14.1225C0.0494374 13.8853 0.0394378 13.6479 0.0305755 13.4106L0.0255758 13.2166C0.00714033 12.4871 -0.00119349 11.7574 0.000576973 11.0277V8.97179C-0.00221386 8.24243 0.0051199 7.51306 0.022576 6.7839L0.0295756 6.58991C0.0375752 6.36592 0.0475747 6.14393 0.0595741 5.87794C0.109572 4.813 0.277563 4.08803 0.524551 3.45006C0.775912 2.78271 1.17048 2.17857 1.68049 1.68015C2.17937 1.17093 2.7834 0.776765 3.45041 0.525205C4.08838 0.278217 4.81334 0.110225 5.87829 0.0602275L6.59026 0.030229L6.78425 0.0252293C7.51339 0.00680304 8.24276 -0.00153078 8.97214 0.000230457L11.028 0.00123034ZM10.0001 5.00099C9.33763 4.99162 8.67991 5.114 8.06516 5.36104C7.45041 5.60807 6.89089 5.97482 6.41911 6.43997C5.94733 6.90512 5.5727 7.4594 5.317 8.0706C5.0613 8.68179 4.92963 9.33772 4.92963 10.0002C4.92963 10.6628 5.0613 11.3187 5.317 11.9299C5.5727 12.5411 5.94733 13.0954 6.41911 13.5605C6.89089 14.0257 7.45041 14.3924 8.06516 14.6394C8.67991 14.8865 9.33763 15.0089 10.0001 14.9995C11.3261 14.9995 12.5978 14.4727 13.5354 13.5351C14.4731 12.5975 14.9998 11.3258 14.9998 9.99974C14.9998 8.67373 14.4731 7.40202 13.5354 6.46438C12.5978 5.52674 11.3261 5.00099 10.0001 5.00099ZM10.0001 7.00089C10.3986 6.99355 10.7945 7.06568 11.1648 7.21309C11.5351 7.36049 11.8723 7.5802 12.1568 7.85939C12.4412 8.13858 12.6671 8.47165 12.8214 8.83914C12.9757 9.20663 13.0551 9.60118 13.0552 9.99973C13.0553 10.3983 12.9759 10.7929 12.8218 11.1604C12.6676 11.5279 12.4418 11.8611 12.1575 12.1404C11.8731 12.4197 11.536 12.6395 11.1658 12.787C10.7955 12.9345 10.3996 13.0068 10.0011 12.9996C9.20548 12.9996 8.44245 12.6835 7.87987 12.121C7.31729 11.5584 7.00124 10.7954 7.00124 9.99974C7.00124 9.20413 7.31729 8.44111 7.87987 7.87852C8.44245 7.31594 9.20548 6.99989 10.0011 6.99989L10.0001 7.00089ZM15.2498 3.50106C14.9272 3.51397 14.6222 3.6512 14.3985 3.88401C14.1748 4.11682 14.0499 4.42715 14.0499 4.75C14.0499 5.07285 14.1748 5.38318 14.3985 5.61598C14.6222 5.84879 14.9272 5.98603 15.2498 5.99894C15.5813 5.99894 15.8993 5.86725 16.1337 5.63284C16.3681 5.39843 16.4998 5.0805 16.4998 4.749C16.4998 4.41749 16.3681 4.09957 16.1337 3.86516C15.8993 3.63075 15.5813 3.49906 15.2498 3.49906V3.50106Z" fill="#CFCFCF"/>
</svg>
