<svg width="13" height="13" viewBox="0 0 13 13" fill="none" xmlns="http://www.w3.org/2000/svg">
<path d="M1.62449 10.2918H11.3744C11.4732 10.2915 11.5699 10.2643 11.6543 10.2131C11.7387 10.1619 11.8075 10.0886 11.8534 10.0012C11.8992 9.91377 11.9204 9.8155 11.9145 9.71696C11.9087 9.61842 11.8761 9.52334 11.8202 9.44195L6.94526 2.40031C6.74322 2.10835 6.2568 2.10835 6.05422 2.40031L1.17924 9.44195C1.12281 9.52317 1.08972 9.6183 1.08356 9.717C1.07741 9.81571 1.09842 9.91421 1.14431 10.0018C1.19021 10.0894 1.25923 10.1628 1.34389 10.2139C1.42854 10.265 1.52559 10.292 1.62449 10.2918Z" fill="#4375B0"/>
</svg>
