<svg width="13" height="595" viewBox="0 0 13 595" fill="none" xmlns="http://www.w3.org/2000/svg">
<rect width="13" height="595" fill="#DDDDDD" fill-opacity="0.6"/>
<rect y="40.3892" width="13" height="90.5957" fill="#DDDDDD"/>
<rect width="13" height="17.92" fill="#F4F4F4" fill-opacity="0.44"/>
<g clip-path="url(#clip0_117_1688)">
<path d="M3.31079 7.82843C3.31079 7.76991 3.33597 7.71001 3.38485 7.66509C3.4826 7.57526 3.64256 7.57526 3.74032 7.66509L7.08616 10.7398L10.3831 7.71001C10.4809 7.62018 10.6409 7.62018 10.7386 7.71001C10.8364 7.79984 10.8364 7.94684 10.7386 8.03668L7.2639 11.2312C7.16615 11.321 7.00618 11.321 6.90843 11.2312L3.38485 7.99312C3.33449 7.94684 3.31079 7.88832 3.31079 7.82843Z" fill="black"/>
</g>
<rect width="13" height="17.92" transform="matrix(1 0 0 -1 0 593.218)" fill="#F4F4F4" fill-opacity="0.44"/>
<g clip-path="url(#clip1_117_1688)">
<path d="M3.31079 585.389C3.31079 585.448 3.33597 585.508 3.38485 585.553C3.4826 585.643 3.64256 585.643 3.74032 585.553L7.08616 582.478L10.3831 585.508C10.4809 585.598 10.6409 585.598 10.7386 585.508C10.8364 585.418 10.8364 585.271 10.7386 585.181L7.2639 581.987C7.16615 581.897 7.00618 581.897 6.90843 581.987L3.38485 585.225C3.33449 585.271 3.31079 585.329 3.31079 585.389Z" fill="black"/>
</g>
<defs>
<clipPath id="clip0_117_1688">
<rect width="7.58333" height="6.9689" fill="white" transform="matrix(1 0 0 -1 3.25 12.9421)"/>
</clipPath>
<clipPath id="clip1_117_1688">
<rect width="7.58333" height="6.9689" fill="white" transform="translate(3.25 580.276)"/>
</clipPath>
</defs>
</svg>
