<svg width="24" height="24" viewBox="0 0 24 24" fill="none" xmlns="http://www.w3.org/2000/svg">
<path fill-rule="evenodd" clip-rule="evenodd" d="M6.29279 17.707C6.10532 17.5195 6 17.2652 6 17C6 16.7349 6.10532 16.4806 6.29279 16.293L11.2928 11.293C11.4803 11.1056 11.7346 11.0002 11.9998 11.0002C12.265 11.0002 12.5193 11.1056 12.7068 11.293L17.7068 16.293C17.8889 16.4816 17.9897 16.7342 17.9875 16.9964C17.9852 17.2586 17.88 17.5094 17.6946 17.6948C17.5092 17.8803 17.2584 17.9854 16.9962 17.9877C16.734 17.99 16.4814 17.8892 16.2928 17.707L11.9998 13.414L7.70679 17.707C7.51926 17.8945 7.26495 17.9998 6.99979 17.9998C6.73462 17.9998 6.48031 17.8945 6.29279 17.707ZM6.29279 11.707C6.10532 11.5195 6 11.2652 6 11C6 10.7349 6.10532 10.4806 6.29279 10.293L11.2928 5.29303C11.4803 5.10556 11.7346 5.00024 11.9998 5.00024C12.265 5.00024 12.5193 5.10556 12.7068 5.29303L17.7068 10.293C17.8889 10.4816 17.9897 10.7342 17.9875 10.9964C17.9852 11.2586 17.88 11.5094 17.6946 11.6948C17.5092 11.8803 17.2584 11.9854 16.9962 11.9877C16.734 11.99 16.4814 11.8892 16.2928 11.707L11.9998 7.41403L7.70679 11.707C7.51926 11.8945 7.26495 11.9998 6.99979 11.9998C6.73462 11.9998 6.48031 11.8945 6.29279 11.707Z" fill="#F76659"/>
</svg>
