<svg width="15" height="22" viewBox="0 0 15 22" fill="none" xmlns="http://www.w3.org/2000/svg">
<rect width="15" height="21.0523" transform="matrix(1 0 0 -1 0 21.0522)" fill="#F4F4F4" fill-opacity="0.44"/>
<g clip-path="url(#clip0_117_2588)">
<path d="M3.82007 11.8555C3.82007 11.9243 3.84912 11.9946 3.90552 12.0474C4.01831 12.1529 4.20288 12.1529 4.31567 12.0474L8.17627 8.43521L11.9805 11.9946C12.0933 12.1002 12.2778 12.1002 12.3906 11.9946C12.5034 11.8891 12.5034 11.7164 12.3906 11.6109L8.38135 7.85796C8.26855 7.75242 8.08398 7.75242 7.97119 7.85796L3.90552 11.662C3.84741 11.7164 3.82007 11.7852 3.82007 11.8555Z" fill="black"/>
</g>
<defs>
<clipPath id="clip0_117_2588">
<rect width="8.75" height="8.18699" fill="white" transform="translate(3.75 5.84766)"/>
</clipPath>
</defs>
</svg>
