<svg width="40" height="40" viewBox="0 0 40 40" fill="none" xmlns="http://www.w3.org/2000/svg">
<path d="M24.1667 12.0817C25.7783 12.0817 27.0848 13.3882 27.0848 14.9999C27.0848 16.6115 25.7783 17.918 24.1667 17.918C23.3083 17.918 22.5366 17.5475 22.0027 16.9576L18.2038 19.1279C18.2899 19.4033 18.3363 19.6962 18.3363 19.9999C18.3363 20.3036 18.2899 20.5964 18.2038 20.8718L22.0019 23.043C22.5358 22.4526 23.3079 22.0817 24.1667 22.0817C25.7783 22.0817 27.0848 23.3882 27.0848 24.9999C27.0848 26.6115 25.7783 27.918 24.1667 27.918C22.555 27.918 21.2485 26.6115 21.2485 24.9999C21.2485 24.6962 21.2949 24.4033 21.381 24.1279L17.5829 21.9568C17.0489 22.5471 16.2769 22.918 15.4181 22.918C13.8065 22.918 12.5 21.6115 12.5 19.9999C12.5 18.3882 13.8065 17.0817 15.4181 17.0817C16.2764 17.0817 17.0482 17.4523 17.5822 18.0421L21.381 15.8718C21.2949 15.5964 21.2485 15.3036 21.2485 14.9999C21.2485 13.3882 22.555 12.0817 24.1667 12.0817ZM24.1667 23.3317C23.2454 23.3317 22.4985 24.0786 22.4985 24.9999C22.4985 25.9212 23.2454 26.668 24.1667 26.668C25.0879 26.668 25.8348 25.9212 25.8348 24.9999C25.8348 24.0786 25.0879 23.3317 24.1667 23.3317ZM15.4181 18.3317C14.4969 18.3317 13.75 19.0786 13.75 19.9999C13.75 20.9212 14.4969 21.668 15.4181 21.668C16.3394 21.668 17.0863 20.9212 17.0863 19.9999C17.0863 19.0786 16.3394 18.3317 15.4181 18.3317ZM24.1667 13.3317C23.2454 13.3317 22.4985 14.0786 22.4985 14.9999C22.4985 15.9212 23.2454 16.668 24.1667 16.668C25.0879 16.668 25.8348 15.9212 25.8348 14.9999C25.8348 14.0786 25.0879 13.3317 24.1667 13.3317Z" fill="#212121"/>
<rect x="0.5" y="0.5" width="39" height="39" rx="5.5" stroke="black" stroke-opacity="0.3"/>
</svg>
