<svg width="16" height="17" viewBox="0 0 16 17" fill="none" xmlns="http://www.w3.org/2000/svg">
<g clip-path="url(#clip0_117_2052)">
<path d="M16 7.34813H13.8667V5.21479H12.8V7.34813H10.6667V8.41479H12.8V10.5481H13.8667V8.41479H16V7.34813ZM5.33333 2.01479C5.86075 2.01479 6.37632 2.17119 6.81485 2.46421C7.25339 2.75723 7.59518 3.1737 7.79701 3.66097C7.99885 4.14824 8.05166 4.68442 7.94876 5.2017C7.84587 5.71898 7.59189 6.19414 7.21895 6.56708C6.84601 6.94002 6.37086 7.19399 5.85357 7.29689C5.33629 7.39978 4.80011 7.34697 4.31284 7.14514C3.82557 6.94331 3.4091 6.60151 3.11608 6.16298C2.82306 5.72445 2.66667 5.20888 2.66667 4.68146C2.66667 3.97422 2.94762 3.29594 3.44772 2.79584C3.94781 2.29575 4.62609 2.01479 5.33333 2.01479ZM5.33333 0.948128C4.59495 0.948128 3.87315 1.16708 3.2592 1.57731C2.64526 1.98753 2.16675 2.5706 1.88418 3.25278C1.60162 3.93495 1.52768 4.6856 1.67173 5.4098C1.81579 6.13399 2.17135 6.79921 2.69347 7.32133C3.21558 7.84344 3.8808 8.19901 4.605 8.34306C5.32919 8.48711 6.07984 8.41318 6.76202 8.13061C7.4442 7.84804 8.02726 7.36953 8.43749 6.75559C8.84771 6.14165 9.06667 5.41984 9.06667 4.68146C9.06667 3.69132 8.67333 2.74173 7.9732 2.0416C7.27306 1.34146 6.32347 0.948128 5.33333 0.948128ZM10.6667 15.8815H9.6V13.2148C9.6 12.5076 9.31905 11.8293 8.81895 11.3292C8.31885 10.8291 7.64058 10.5481 6.93333 10.5481H3.73333C3.02609 10.5481 2.34781 10.8291 1.84772 11.3292C1.34762 11.8293 1.06667 12.5076 1.06667 13.2148V15.8815H0V13.2148C0 12.2247 0.393332 11.2751 1.09347 10.5749C1.7936 9.87479 2.74319 9.48146 3.73333 9.48146H6.93333C7.92348 9.48146 8.87306 9.87479 9.5732 10.5749C10.2733 11.2751 10.6667 12.2247 10.6667 13.2148V15.8815Z" fill="#F6F8F9"/>
</g>
<defs>
<clipPath id="clip0_117_2052">
<rect width="15.4375" height="16.238" fill="white" transform="scale(1.03644)"/>
</clipPath>
</defs>
</svg>
