<svg width="13" height="13" viewBox="0 0 13 13" fill="none" xmlns="http://www.w3.org/2000/svg">
<path d="M5.47365 11.9736C5.47365 12.2458 5.58178 12.5068 5.77425 12.6993C5.96672 12.8918 6.22776 12.9999 6.49996 12.9999C6.77215 12.9999 7.0332 12.8918 7.22567 12.6993C7.41814 12.5068 7.52627 12.2458 7.52627 11.9736V7.52627H11.9736C12.2458 7.52627 12.5068 7.41814 12.6993 7.22567C12.8918 7.0332 12.9999 6.77215 12.9999 6.49996C12.9999 6.22776 12.8918 5.96672 12.6993 5.77425C12.5068 5.58178 12.2458 5.47365 11.9736 5.47365H7.52627V1.02631C7.52627 0.754115 7.41814 0.493069 7.22567 0.300599C7.0332 0.108129 6.77215 0 6.49996 0C6.22776 0 5.96672 0.108129 5.77425 0.300599C5.58178 0.493069 5.47365 0.754115 5.47365 1.02631V5.47365H1.02631C0.754115 5.47365 0.493069 5.58178 0.300599 5.77425C0.108129 5.96672 0 6.22776 0 6.49996C0 6.77215 0.108129 7.0332 0.300599 7.22567C0.493069 7.41814 0.754115 7.52627 1.02631 7.52627H5.47365V11.9736Z" fill="#6E7C87"/>
</svg>
