<svg width="26" height="26" viewBox="0 0 26 26" fill="none" xmlns="http://www.w3.org/2000/svg">
<path d="M7.80016 21.84H6.76016L7.38416 21.008C7.80016 20.436 8.06016 19.708 8.21616 18.824C5.61616 17.628 4.16016 15.392 4.16016 12.48C4.16016 8.00795 7.54016 5.19995 13.0002 5.19995C18.4602 5.19995 21.8402 8.00795 21.8402 12.48C21.8402 17.056 18.5122 19.76 13.0002 19.76H12.6362C11.8042 20.748 10.3482 21.84 7.80016 21.84ZM13.0002 6.23995C8.11216 6.23995 5.20016 8.57995 5.20016 12.48C5.20016 15.808 7.22816 17.368 8.94416 18.044L9.30816 18.2L9.25616 18.616C9.15216 19.448 8.99616 20.176 8.68416 20.8C10.4002 20.592 11.3882 19.708 11.9602 18.98L12.1162 18.772H13.0002C20.0202 18.772 20.8002 14.404 20.8002 12.532C20.8002 8.57995 17.8882 6.23995 13.0002 6.23995Z" fill="black"/>
</svg>
